<svg width="7" height="11" viewBox="0 0 7 11" xmlns="http://www.w3.org/2000/svg">
<path d="M5.71929 5.293C5.90676 5.48053 6.01207 5.73484 6.01207 6C6.01207 6.26517 5.90676 6.51948 5.71929 6.707L1.71929 10.707C1.53069 10.8892 1.27808 10.99 1.01589 10.9877C0.753691 10.9854 0.502878 10.8802 0.31747 10.6948C0.132062 10.5094 0.0268924 10.2586 0.0246139 9.99641C0.0223355 9.73421 0.12313 9.48161 0.305288 9.293L3.59829 6L0.305288 2.707C0.209778 2.61476 0.133597 2.50441 0.0811878 2.38241C0.0287788 2.26041 0.00119157 2.12919 3.77571e-05 1.99641C-0.00111606 1.86363 0.0241854 1.73195 0.0744663 1.60905C0.124747 1.48615 0.199001 1.3745 0.292894 1.28061C0.386787 1.18672 0.498439 1.11246 0.621336 1.06218C0.744232 1.0119 0.87591 0.986601 1.00869 0.987754C1.14147 0.988908 1.27269 1.01649 1.39469 1.0689C1.5167 1.12131 1.62704 1.19749 1.71929 1.29301L5.71929 5.293Z"/>
</svg>
