<svg width="16" height="8" viewBox="0 0 16 8" xmlns="http://www.w3.org/2000/svg">
<path d="M0.159817 1.4569L7.6314 7.86249C7.73815 7.95412 7.86096 8 7.99989 8C8.13881 8 8.26185 7.95412 8.36865 7.86249L15.8396 1.4569C15.9467 1.36513 16 1.25984 16 1.14068C16 1.02156 15.9465 0.916123 15.8396 0.824549L15.0382 0.137457C14.9313 0.045835 14.8083 4.76837e-05 14.6694 4.76837e-05C14.5305 4.76837e-05 14.4075 0.045835 14.3007 0.137457L7.99989 5.53954L1.6989 0.13712C1.59209 0.0454974 1.46906 0 1.33036 0C1.19121 0 1.06823 0.0457864 0.961422 0.13712L0.159873 0.824502C0.0530672 0.916075 0 1.02156 0 1.14063C-5.53131e-05 1.25984 0.0530109 1.36528 0.159817 1.4569Z"/>
</svg>
