<svg width="8" height="13" viewBox="0 0 8 13" fill="none" xmlns="http://www.w3.org/2000/svg">
<path d="M4.19994 0.201928C4.3291 0.201947 4.45297 0.253268 4.54431 0.344603C4.63564 0.435938 4.68697 0.559809 4.68698 0.688976L4.68698 10.5353L6.61106 8.61125C6.70242 8.5199 6.82632 8.46857 6.95551 8.46857C7.0847 8.46857 7.2086 8.5199 7.29996 8.61125C7.39131 8.7026 7.44263 8.8265 7.44263 8.95569C7.44263 9.08489 7.39131 9.20879 7.29996 9.30014L4.54438 12.0557C4.45303 12.1471 4.32913 12.1984 4.19994 12.1984C4.07074 12.1984 3.94684 12.1471 3.85549 12.0557L1.09992 9.30014C1.00856 9.20879 0.957242 9.08489 0.957243 8.95569C0.957243 8.8265 1.00856 8.7026 1.09992 8.61125C1.19127 8.51989 1.31517 8.46857 1.44436 8.46857C1.57356 8.46857 1.69746 8.5199 1.78881 8.61125L3.71289 10.5353L3.71289 0.688975C3.71291 0.559808 3.76423 0.435938 3.85556 0.344603C3.9469 0.253268 4.07077 0.201947 4.19994 0.201928Z"/>
</svg>
