<svg width="7" height="11" viewBox="0 0 7 11" fill="none" xmlns="http://www.w3.org/2000/svg">
<path d="M1.28071 5.29299C1.09324 5.48052 0.987925 5.73483 0.987925 5.99999C0.987925 6.26515 1.09324 6.51946 1.28071 6.70699L5.28071 10.707C5.46931 10.8891 5.72192 10.9899 5.98411 10.9877C6.24631 10.9854 6.49712 10.8802 6.68253 10.6948C6.86794 10.5094 6.97311 10.2586 6.97539 9.99639C6.97766 9.73419 6.87687 9.48159 6.69471 9.29299L3.40171 5.99999L6.69471 2.70699C6.79022 2.61474 6.8664 2.5044 6.91881 2.38239C6.97122 2.26039 6.99881 2.12917 6.99996 1.99639C7.00112 1.86361 6.97581 1.73193 6.92553 1.60904C6.87525 1.48614 6.801 1.37449 6.70711 1.28059C6.61321 1.1867 6.50156 1.11245 6.37866 1.06217C6.25577 1.01189 6.12409 0.986585 5.99131 0.987739C5.85853 0.988893 5.72731 1.01648 5.60531 1.06889C5.4833 1.1213 5.37296 1.19748 5.28071 1.29299L1.28071 5.29299Z"/>
</svg>
