<svg width="28" height="12" viewBox="0 0 28 12" fill="none" xmlns="http://www.w3.org/2000/svg">
<path d="M0.738576 6C0.738609 5.77264 0.826405 5.5546 0.982654 5.39383C1.1389 5.23306 1.35081 5.14273 1.57178 5.14269L24.4162 5.14269L21.1247 1.75591C20.9684 1.59511 20.8806 1.37702 20.8806 1.14962C20.8806 0.922209 20.9684 0.704117 21.1247 0.543317C21.2809 0.382517 21.4929 0.29218 21.7139 0.29218C21.9349 0.29218 22.1469 0.382517 22.3032 0.543317L27.0172 5.3937C27.1735 5.5545 27.2613 5.7726 27.2613 6C27.2613 6.22741 27.1735 6.4455 27.0172 6.6063L22.3032 11.4567C22.1469 11.6175 21.9349 11.7078 21.7139 11.7078C21.4929 11.7078 21.2809 11.6175 21.1247 11.4567C20.9684 11.2959 20.8806 11.0778 20.8806 10.8504C20.8806 10.623 20.9684 10.4049 21.1247 10.2441L24.4162 6.85731L1.57178 6.85731C1.35081 6.85727 1.1389 6.76694 0.982654 6.60617C0.826404 6.4454 0.738608 6.22736 0.738576 6Z"/>
</svg>
