<svg width="24" height="24" fill="none" xmlns="http://www.w3.org/2000/svg"><path d="M12 0C8.7 0 6 2.7 6 6c0 5.2 6 14.594 6 14.594S18 11.102 18 6c0-3.3-2.7-6-6-6zm0 4c1.102 0 2 .898 2 2 0 1.102-.898 2-2 2-1.102 0-2-.898-2-2 0-1.102.898-2 2-2zM6.281 16.063c-1.699.308-3.152.757-4.218 1.312-.536.277-.97.563-1.313.938-.344.375-.594.847-.594 1.375 0 .796.52 1.44 1.188 1.906.668.465 1.539.84 2.593 1.156 2.114.629 4.95 1 8.063 1 3.113 0 5.95-.371 8.063-1 1.054-.316 1.925-.691 2.593-1.156.668-.465 1.188-1.11 1.188-1.907 0-.535-.246-1.019-.594-1.406-.348-.386-.777-.699-1.313-.968-1.07-.543-2.527-.942-4.218-1.25l-.25 1.468c1.605.293 2.93.692 3.781 1.125.426.215.738.438.906.625.168.188.188.293.188.407 0 .101-.102.367-.563.687-.46.32-1.199.652-2.156.938-1.914.57-4.637.937-7.625.937-2.988 0-5.71-.367-7.625-.938-.957-.285-1.695-.617-2.156-.937-.461-.32-.563-.586-.563-.688 0-.07.016-.156.188-.343.172-.188.476-.434.906-.657.86-.445 2.184-.867 3.781-1.156l-.25-1.468z"/></svg>